<?xml version="1.0" encoding="UTF-8"?>
<!DOCTYPE svg PUBLIC "-//W3C//DTD SVG 1.1//EN" "http://www.w3.org/Graphics/SVG/1.1/DTD/svg11.dtd">
<svg version="1.1" xmlns="http://www.w3.org/2000/svg" xmlns:xlink="http://www.w3.org/1999/xlink" x="0" y="0" width="340" height="200" viewBox="0, 0, 340, 200">
  <g id="Layer_1">
    <path d="M16.413,186.686 C13.495,186.686 11.066,186.443 9.12,185.957 C7.175,185.471 5.62,184.693 4.453,183.623 C3.286,182.554 2.46,181.154 1.974,179.423 C1.485,177.692 1.243,175.561 1.243,173.034 L1.243,160.55 C1.243,158.06 1.485,155.941 1.974,154.191 C2.46,152.441 3.286,151.031 4.453,149.961 C5.62,148.891 7.175,148.112 9.12,147.626 C11.066,147.141 13.495,146.897 16.412,146.897 L44.007,146.897 L44.007,154.54 L16.823,154.54 C15.46,154.54 14.342,154.647 13.467,154.861 C12.592,155.075 11.901,155.435 11.396,155.94 C10.889,156.446 10.54,157.117 10.345,157.953 C10.151,158.789 10.052,159.81 10.052,161.015 L10.052,172.685 C10.052,173.929 10.151,174.959 10.345,175.777 C10.54,176.594 10.889,177.255 11.396,177.76 C11.901,178.265 12.601,178.615 13.495,178.81 C14.391,179.004 15.517,179.102 16.879,179.102 L44.007,179.102 L44.007,186.686 z M49.734,186.686 L49.734,168.368 C49.734,165.995 50.007,163.972 50.551,162.3 C51.096,160.627 51.961,159.257 53.148,158.188 C54.334,157.118 55.861,156.33 57.727,155.824 C59.593,155.318 61.868,155.066 64.552,155.066 L70.213,155.066 L70.213,162.126 L64.785,162.126 C63.582,162.126 62.57,162.222 61.752,162.417 C60.936,162.61 60.284,162.941 59.798,163.409 C59.312,163.875 58.961,164.516 58.748,165.334 C58.535,166.151 58.428,167.181 58.428,168.425 L58.428,186.686 z M83.89,171.517 C83.89,173.268 84.269,174.483 85.026,175.164 C85.785,175.845 87.06,176.185 88.85,176.185 L108.275,176.185 L108.275,155.066 L116.737,155.066 L116.737,186.102 C116.737,189.642 115.86,192.199 114.112,193.774 C112.362,195.349 109.502,196.136 105.534,196.136 L92.876,196.136 L92.876,189.021 L104.775,189.021 C105.981,189.021 106.866,188.787 107.43,188.319 C107.993,187.852 108.275,186.958 108.275,185.635 L108.275,183.069 L88.324,183.069 C85.951,183.069 83.938,182.845 82.286,182.398 C80.633,181.951 79.29,181.261 78.26,180.328 C77.229,179.393 76.481,178.227 76.015,176.827 C75.549,175.427 75.315,173.774 75.315,171.868 L75.315,155.066 L83.89,155.066 z M149.764,155.066 C152.721,155.066 155.171,155.309 157.115,155.795 C159.061,156.282 160.615,157.059 161.783,158.128 C162.949,159.197 163.775,160.608 164.262,162.358 C164.747,164.108 164.99,166.247 164.99,168.775 L164.99,173.034 C164.99,175.562 164.747,177.692 164.262,179.423 C163.775,181.154 162.949,182.554 161.783,183.623 C160.615,184.692 159.059,185.471 157.115,185.957 C155.169,186.443 152.721,186.686 149.764,186.686 L132.145,186.686 L132.145,196.136 L123.451,196.136 L123.451,168.775 C123.451,166.247 123.696,164.108 124.18,162.358 C124.666,160.608 125.493,159.198 126.661,158.128 C127.828,157.059 129.385,156.282 131.329,155.795 C133.273,155.309 135.723,155.066 138.68,155.066 z M156.298,169.008 C156.298,167.609 156.191,166.481 155.977,165.626 C155.762,164.769 155.365,164.109 154.781,163.642 C154.197,163.175 153.411,162.863 152.417,162.707 C151.426,162.552 150.173,162.474 148.656,162.474 L138.971,162.474 C137.611,162.474 136.482,162.572 135.587,162.766 C134.691,162.961 133.992,163.302 133.488,163.787 C132.98,164.273 132.63,164.934 132.438,165.771 C132.242,166.607 132.145,167.667 132.145,168.951 L132.145,179.276 L148.714,179.276 C150.23,179.276 151.475,179.208 152.447,179.072 C153.419,178.937 154.197,178.635 154.781,178.168 C155.365,177.702 155.762,177.041 155.977,176.184 C156.191,175.329 156.298,174.181 156.298,172.742 z M173.352,186.686 L173.352,162.126 L168.917,162.126 L168.917,155.066 L173.352,155.066 L173.352,146.139 L182.219,146.139 L182.219,155.066 L192.195,155.066 L192.195,162.126 L182.219,162.126 L182.219,186.686 z M205.251,175.309 L205.251,186.687 L196.383,186.687 L196.383,146.897 L228.238,146.897 C231.077,146.897 233.449,147.121 235.355,147.568 C237.26,148.016 238.796,148.756 239.964,149.786 C241.13,150.817 241.958,152.149 242.443,153.782 C242.928,155.416 243.171,157.399 243.171,159.732 L243.171,163.174 C243.171,165.547 242.939,167.511 242.471,169.068 C242.005,170.623 241.199,171.868 240.051,172.802 C238.904,173.735 237.378,174.386 235.471,174.756 C233.564,175.125 231.154,175.309 228.238,175.309 z M234.305,160.083 C234.305,157.945 233.848,156.486 232.934,155.708 C232.018,154.929 230.376,154.541 228.005,154.54 L205.251,154.54 L205.251,168.135 L228.12,168.135 C230.454,168.135 232.068,167.774 232.962,167.054 C233.859,166.335 234.305,164.925 234.305,162.825 z M259.477,186.686 C257.182,186.686 255.296,186.491 253.818,186.103 C252.34,185.714 251.163,185.159 250.29,184.44 C249.413,183.721 248.801,182.845 248.449,181.815 C248.1,180.784 247.926,179.627 247.926,178.343 L247.926,175.368 C247.926,174.046 248.09,172.869 248.421,171.839 C248.742,170.822 249.339,169.913 250.143,169.213 C250.96,168.494 252.079,167.95 253.499,167.58 C254.919,167.21 256.716,167.025 258.895,167.025 L282.289,167.025 L282.289,166.325 C282.289,164.302 281.88,162.951 281.064,162.27 C280.246,161.589 278.866,161.249 276.922,161.249 L268.286,161.249 L268.286,155.066 L276.922,155.066 C279.449,155.066 281.599,155.299 283.368,155.765 C285.138,156.232 286.586,156.942 287.714,157.895 C288.841,158.848 289.668,160.054 290.193,161.512 C290.719,162.97 290.98,164.71 290.98,166.732 L290.98,174.435 C290.98,176.729 290.758,178.654 290.31,180.21 C289.862,181.765 289.085,183.029 287.977,184.002 C286.87,184.975 285.391,185.665 283.543,186.073 C281.695,186.482 279.371,186.686 276.57,186.686 z M282.289,172.393 L259.828,172.393 C258.815,172.393 258.02,172.617 257.435,173.064 C256.852,173.512 256.56,174.357 256.56,175.602 L256.56,177.759 C256.56,178.888 256.871,179.666 257.495,180.094 C258.116,180.522 258.992,180.736 260.12,180.736 L276.454,180.736 C277.466,180.736 278.341,180.659 279.079,180.503 C279.819,180.347 280.422,180.065 280.888,179.655 C281.354,179.247 281.704,178.673 281.939,177.934 C282.172,177.196 282.289,176.243 282.289,175.076 z M312.503,186.686 C309.547,186.686 307.086,186.443 305.124,185.957 C303.159,185.471 301.594,184.693 300.426,183.623 C299.259,182.554 298.432,181.154 297.947,179.423 C297.461,177.692 297.217,175.561 297.217,173.034 L297.217,168.775 C297.217,166.247 297.461,164.108 297.947,162.358 C298.434,160.608 299.259,159.198 300.426,158.128 C301.594,157.059 303.159,156.282 305.124,155.795 C307.087,155.309 309.547,155.066 312.503,155.066 L330.062,155.066 L330.062,144.855 L338.757,144.855 L338.757,173.034 C338.757,175.562 338.513,177.692 338.026,179.423 C337.539,181.154 336.714,182.554 335.547,183.623 C334.379,184.692 332.824,185.471 330.879,185.957 C328.935,186.443 326.483,186.686 323.53,186.686 z M305.909,172.801 C305.909,174.201 306.016,175.329 306.23,176.185 C306.445,177.041 306.845,177.702 307.427,178.169 C308.01,178.635 308.798,178.946 309.79,179.102 C310.783,179.257 312.056,179.335 313.612,179.335 L323.296,179.335 C324.656,179.335 325.776,179.248 326.65,179.072 C327.525,178.897 328.215,178.566 328.72,178.08 C329.225,177.594 329.577,176.934 329.771,176.097 C329.966,175.261 330.062,174.182 330.062,172.86 L330.062,162.532 L313.553,162.532 C312.036,162.532 310.781,162.609 309.79,162.765 C308.798,162.921 308.01,163.232 307.427,163.699 C306.845,164.167 306.445,164.827 306.23,165.682 C306.017,166.538 305.909,167.666 305.909,169.066 z" fill="#1D3A4F"/>
    <path d="M169.999,3.864 L133.883,10.535 C132.607,9.627 131.033,9.112 129.347,9.112 C127.294,9.11 125.325,9.925 123.873,11.377 C122.421,12.829 121.606,14.798 121.608,16.851 C121.61,19.677 123.141,22.281 125.61,23.656 L125.61,75.74 C125.61,80.644 127.804,85.939 132.15,91.485 C135.998,96.392 141.441,101.426 148.34,106.43 C156.95,112.656 165.735,117.261 170,119.372 C174.267,117.261 183.048,112.656 191.66,106.43 C198.562,101.426 204.002,96.392 207.85,91.485 C212.198,85.932 214.389,80.644 214.389,75.74 L214.389,23.612 C216.752,22.284 218.392,19.753 218.392,16.851 C218.392,12.574 214.886,9.112 210.608,9.112 C209.013,9.112 207.459,9.61 206.16,10.535 z M169.911,11.559 L202.913,17.651 C202.962,18.136 203.003,18.576 203.136,19.031 L183.788,31.619 C180.328,27.863 175.354,25.48 169.866,25.48 C164.34,25.48 159.337,27.903 155.856,31.707 L136.73,19.297 C136.906,18.761 136.988,18.188 137.042,17.607 z M205.495,22.633 C206.14,23.199 206.91,23.682 207.718,24.011 L207.718,74.672 C207.718,75.339 207.659,76.053 207.54,76.761 C206.762,79.858 205.055,83.1 202.426,86.458 C199.13,90.658 194.456,94.94 188.548,99.223 C181.176,104.552 173.654,108.534 170.001,110.343 C166.351,108.534 158.825,104.552 151.454,99.223 C145.55,94.94 140.916,90.658 137.621,86.458 C134.482,82.452 132.646,78.612 132.151,74.983 L132.151,24.101 C132.937,23.799 133.647,23.338 134.285,22.811 L158.792,38.601 C160.975,34.514 165.234,31.965 169.867,31.974 C174.712,31.974 178.87,34.645 180.943,38.645 L205.494,22.634 z" fill="#1D3A4F"/>
    <g>
      <path d="M150.081,71.607 C146.922,71.607 144.343,74.186 144.343,77.344 C144.343,80.503 146.922,83.037 150.081,83.037 C151.592,83.041 153.042,82.443 154.111,81.375 C155.179,80.306 155.777,78.856 155.773,77.345 C155.773,74.186 153.239,71.607 150.081,71.607 z" fill="#1D3A4F"/>
      <path d="M151.69,39.132 C151.179,40.845 150.867,42.631 150.867,44.504 C150.867,49.902 153.206,54.688 156.848,58.149 L147.751,76.45 C146.785,78.41 148.467,81.11 150.652,81.106 L164.225,81.106 L164.225,74.659 L155.844,74.659 L163.724,58.83 C164.405,57.46 163.938,55.624 162.685,54.747 C159.441,52.483 157.313,48.785 157.313,44.504 C157.313,43.951 157.387,43.425 157.456,42.893 z" fill="#1D3A4F"/>
    </g>
    <g>
      <path d="M189.978,71.607 C186.819,71.607 184.24,74.186 184.24,77.344 C184.24,80.503 186.819,83.037 189.978,83.037 C191.489,83.041 192.939,82.443 194.008,81.375 C195.076,80.306 195.674,78.856 195.67,77.345 C195.67,74.186 193.136,71.607 189.978,71.607 z" fill="#1D3A4F"/>
      <path d="M188.043,39.167 L182.24,42.964 C182.303,43.474 182.348,43.975 182.348,44.504 C182.348,48.771 180.279,52.443 177.047,54.711 C175.794,55.588 175.327,57.424 176.009,58.795 L183.816,74.66 L175.472,74.66 L175.472,81.105 L189.045,81.105 C191.229,81.108 192.911,78.409 191.946,76.449 L182.848,58.112 C186.473,54.654 188.793,49.889 188.793,44.503 C188.793,42.654 188.538,40.861 188.042,39.167 z" fill="#1D3A4F"/>
    </g>
    <path d="M174.988,44.991 C174.988,47.87 172.655,50.203 169.776,50.203 C166.898,50.203 164.564,47.87 164.564,44.991 C164.564,42.113 166.898,39.779 169.776,39.779 C172.655,39.779 174.988,42.113 174.988,44.991 z M177.53,113.106 C177.53,117.388 174.059,120.859 169.777,120.859 C165.495,120.859 162.024,117.388 162.024,113.106 C162.024,108.824 165.495,105.353 169.777,105.353 C174.059,105.353 177.53,108.824 177.53,113.106 z" fill="#1D3A4F"/>
  </g>
</svg>
