<?xml version="1.0" encoding="UTF-8"?>
<!DOCTYPE svg PUBLIC "-//W3C//DTD SVG 1.1//EN" "http://www.w3.org/Graphics/SVG/1.1/DTD/svg11.dtd">
<svg version="1.1" xmlns="http://www.w3.org/2000/svg" xmlns:xlink="http://www.w3.org/1999/xlink" x="0" y="0" width="462.395" height="121.477" viewBox="0, 0, 462.395, 121.477">
  <g id="Layer_1">
    <path d="M131.522,80.868 C128.605,80.868 126.175,80.625 124.23,80.139 C122.285,79.653 120.729,78.875 119.563,77.805 C118.396,76.736 117.569,75.336 117.083,73.605 C116.595,71.874 116.353,69.743 116.353,67.216 L116.353,54.732 C116.353,52.242 116.595,50.123 117.083,48.373 C117.569,46.623 118.396,45.213 119.563,44.143 C120.729,43.073 122.285,42.294 124.23,41.808 C126.176,41.323 128.605,41.079 131.521,41.079 L159.116,41.079 L159.116,48.722 L131.932,48.722 C130.57,48.722 129.452,48.829 128.577,49.043 C127.701,49.257 127.011,49.617 126.506,50.122 C125.999,50.628 125.649,51.299 125.455,52.135 C125.261,52.971 125.162,53.992 125.162,55.197 L125.162,66.867 C125.162,68.111 125.261,69.141 125.455,69.959 C125.65,70.776 125.999,71.437 126.505,71.942 C127.011,72.447 127.711,72.797 128.605,72.992 C129.5,73.186 130.627,73.284 131.989,73.284 L159.117,73.284 L159.117,80.868 z M164.843,80.868 L164.843,62.55 C164.843,60.177 165.116,58.154 165.661,56.482 C166.205,54.809 167.071,53.439 168.258,52.37 C169.444,51.3 170.97,50.512 172.836,50.006 C174.703,49.5 176.978,49.248 179.662,49.248 L185.322,49.248 L185.322,56.308 L179.895,56.308 C178.691,56.308 177.68,56.404 176.862,56.599 C176.045,56.792 175.393,57.123 174.907,57.591 C174.422,58.057 174.071,58.698 173.857,59.516 C173.644,60.333 173.537,61.363 173.537,62.607 L173.537,80.868 z M198.999,65.699 C198.999,67.45 199.378,68.665 200.136,69.346 C200.895,70.027 202.169,70.367 203.959,70.367 L223.385,70.367 L223.385,49.248 L231.846,49.248 L231.846,80.284 C231.846,83.824 230.97,86.381 229.221,87.956 C227.471,89.531 224.611,90.318 220.643,90.318 L207.985,90.318 L207.985,83.203 L219.885,83.203 C221.091,83.203 221.975,82.969 222.54,82.501 C223.103,82.034 223.385,81.14 223.385,79.817 L223.385,77.251 L203.433,77.251 C201.061,77.251 199.048,77.027 197.396,76.58 C195.743,76.133 194.4,75.443 193.37,74.51 C192.339,73.575 191.591,72.409 191.124,71.009 C190.658,69.609 190.425,67.956 190.425,66.05 L190.425,49.248 L198.999,49.248 z M264.874,49.248 C267.83,49.248 270.28,49.491 272.225,49.977 C274.17,50.464 275.725,51.241 276.892,52.31 C278.058,53.379 278.885,54.79 279.371,56.54 C279.857,58.29 280.1,60.429 280.1,62.957 L280.1,67.216 C280.1,69.744 279.857,71.874 279.371,73.605 C278.884,75.336 278.058,76.736 276.892,77.805 C275.725,78.874 274.169,79.653 272.225,80.139 C270.279,80.625 267.83,80.868 264.874,80.868 L247.255,80.868 L247.255,90.318 L238.561,90.318 L238.561,62.957 C238.561,60.429 238.805,58.29 239.29,56.54 C239.776,54.79 240.603,53.38 241.771,52.31 C242.938,51.241 244.494,50.464 246.438,49.977 C248.382,49.491 250.833,49.248 253.789,49.248 z M271.408,63.19 C271.408,61.791 271.301,60.663 271.087,59.808 C270.872,58.951 270.474,58.291 269.89,57.824 C269.307,57.357 268.52,57.045 267.527,56.889 C266.535,56.734 265.282,56.656 263.765,56.656 L254.081,56.656 C252.72,56.656 251.592,56.754 250.696,56.948 C249.801,57.143 249.101,57.484 248.597,57.969 C248.09,58.455 247.739,59.116 247.547,59.953 C247.352,60.789 247.255,61.849 247.255,63.133 L247.255,73.458 L263.823,73.458 C265.34,73.458 266.585,73.39 267.557,73.254 C268.529,73.119 269.307,72.817 269.89,72.35 C270.474,71.884 270.872,71.223 271.087,70.366 C271.301,69.511 271.408,68.363 271.408,66.924 z M288.461,80.868 L288.461,56.308 L284.027,56.308 L284.027,49.248 L288.461,49.248 L288.461,40.321 L297.329,40.321 L297.329,49.248 L307.305,49.248 L307.305,56.308 L297.329,56.308 L297.329,80.868 z M320.36,69.491 L320.36,80.869 L311.493,80.869 L311.493,41.079 L343.347,41.079 C346.187,41.079 348.558,41.303 350.465,41.75 C352.37,42.198 353.906,42.938 355.073,43.968 C356.24,44.999 357.067,46.331 357.552,47.964 C358.038,49.598 358.281,51.581 358.281,53.914 L358.281,57.356 C358.281,59.729 358.048,61.693 357.581,63.25 C357.115,64.805 356.308,66.05 355.161,66.984 C354.014,67.917 352.487,68.568 350.581,68.938 C348.674,69.307 346.264,69.491 343.347,69.491 z M349.415,54.265 C349.415,52.127 348.958,50.668 348.043,49.89 C347.128,49.111 345.486,48.723 343.114,48.722 L320.36,48.722 L320.36,62.317 L343.23,62.317 C345.564,62.317 347.178,61.956 348.072,61.236 C348.968,60.517 349.415,59.107 349.415,57.007 z M374.586,80.868 C372.292,80.868 370.406,80.673 368.928,80.285 C367.45,79.896 366.273,79.341 365.399,78.622 C364.522,77.903 363.91,77.027 363.559,75.997 C363.21,74.966 363.035,73.809 363.035,72.525 L363.035,69.55 C363.035,68.228 363.2,67.051 363.53,66.021 C363.852,65.004 364.448,64.095 365.252,63.395 C366.07,62.676 367.188,62.132 368.608,61.762 C370.028,61.392 371.826,61.207 374.004,61.207 L397.398,61.207 L397.398,60.507 C397.398,58.484 396.99,57.133 396.173,56.452 C395.355,55.771 393.975,55.431 392.031,55.431 L383.396,55.431 L383.396,49.248 L392.031,49.248 C394.559,49.248 396.708,49.481 398.478,49.947 C400.247,50.414 401.696,51.124 402.823,52.077 C403.95,53.03 404.778,54.236 405.302,55.694 C405.828,57.152 406.09,58.892 406.09,60.914 L406.09,68.617 C406.09,70.911 405.867,72.836 405.419,74.392 C404.972,75.947 404.194,77.211 403.086,78.184 C401.979,79.157 400.5,79.847 398.653,80.255 C396.805,80.664 394.481,80.868 391.68,80.868 z M397.398,66.575 L374.937,66.575 C373.925,66.575 373.129,66.799 372.545,67.246 C371.961,67.694 371.67,68.539 371.67,69.784 L371.67,71.941 C371.67,73.07 371.981,73.848 372.604,74.276 C373.226,74.704 374.102,74.918 375.229,74.918 L391.564,74.918 C392.575,74.918 393.451,74.841 394.189,74.685 C394.928,74.529 395.531,74.247 395.998,73.837 C396.464,73.429 396.814,72.855 397.048,72.116 C397.282,71.378 397.398,70.425 397.398,69.258 z M427.612,80.868 C424.656,80.868 422.196,80.625 420.233,80.139 C418.268,79.653 416.703,78.875 415.535,77.805 C414.369,76.736 413.542,75.336 413.056,73.605 C412.57,71.874 412.327,69.743 412.327,67.216 L412.327,62.957 C412.327,60.429 412.57,58.29 413.056,56.54 C413.543,54.79 414.369,53.38 415.535,52.31 C416.703,51.241 418.268,50.464 420.233,49.977 C422.197,49.491 424.656,49.248 427.612,49.248 L445.172,49.248 L445.172,39.037 L453.866,39.037 L453.866,67.216 C453.866,69.744 453.623,71.874 453.136,73.605 C452.649,75.336 451.823,76.736 450.656,77.805 C449.489,78.874 447.934,79.653 445.988,80.139 C444.044,80.625 441.593,80.868 438.639,80.868 z M421.019,66.983 C421.019,68.383 421.125,69.511 421.34,70.367 C421.555,71.223 421.954,71.884 422.537,72.351 C423.12,72.817 423.908,73.128 424.9,73.284 C425.892,73.439 427.165,73.517 428.721,73.517 L438.405,73.517 C439.766,73.517 440.885,73.43 441.759,73.254 C442.634,73.079 443.324,72.748 443.83,72.262 C444.335,71.776 444.686,71.116 444.88,70.279 C445.075,69.443 445.172,68.364 445.172,67.042 L445.172,56.714 L428.663,56.714 C427.146,56.714 425.891,56.791 424.9,56.947 C423.908,57.103 423.12,57.414 422.537,57.881 C421.954,58.349 421.555,59.009 421.34,59.864 C421.126,60.72 421.019,61.848 421.019,63.248 z" fill="#1D3A4F"/>
    <path d="M56.92,2.241 L20.804,8.912 C19.528,8.004 17.954,7.489 16.268,7.489 C14.215,7.487 12.246,8.302 10.794,9.754 C9.342,11.206 8.527,13.175 8.529,15.228 C8.531,18.054 10.062,20.658 12.531,22.033 L12.531,74.117 C12.531,79.021 14.725,84.316 19.071,89.862 C22.919,94.769 28.362,99.803 35.261,104.807 C43.871,111.033 52.656,115.638 56.921,117.749 C61.188,115.638 69.969,111.033 78.581,104.807 C85.483,99.803 90.923,94.769 94.771,89.862 C99.119,84.309 101.31,79.021 101.31,74.117 L101.31,21.989 C103.673,20.661 105.313,18.13 105.313,15.228 C105.313,10.951 101.807,7.489 97.529,7.489 C95.934,7.489 94.38,7.987 93.081,8.912 z M56.832,9.936 L89.834,16.028 C89.883,16.513 89.924,16.953 90.057,17.408 L70.709,29.996 C67.249,26.24 62.275,23.857 56.787,23.857 C51.261,23.857 46.258,26.28 42.777,30.084 L23.651,17.674 C23.827,17.138 23.909,16.565 23.963,15.984 z M92.416,21.01 C93.061,21.576 93.831,22.059 94.639,22.388 L94.639,73.049 C94.639,73.716 94.58,74.43 94.461,75.138 C93.683,78.235 91.976,81.477 89.347,84.835 C86.051,89.035 81.377,93.317 75.469,97.6 C68.097,102.929 60.575,106.911 56.922,108.72 C53.272,106.911 45.746,102.929 38.375,97.6 C32.471,93.317 27.837,89.035 24.542,84.835 C21.403,80.829 19.567,76.989 19.072,73.36 L19.072,22.478 C19.858,22.176 20.568,21.715 21.206,21.188 L45.713,36.978 C47.896,32.891 52.155,30.342 56.788,30.351 C61.633,30.351 65.791,33.022 67.864,37.022 L92.415,21.011 z" fill="#1D3A4F"/>
    <g>
      <path d="M37.002,69.984 C33.843,69.984 31.264,72.563 31.264,75.721 C31.264,78.88 33.843,81.414 37.002,81.414 C38.513,81.418 39.963,80.82 41.032,79.752 C42.1,78.683 42.698,77.233 42.694,75.722 C42.694,72.563 40.16,69.984 37.002,69.984 z" fill="#1D3A4F"/>
      <path d="M38.611,37.509 C38.1,39.222 37.788,41.008 37.788,42.881 C37.788,48.279 40.127,53.065 43.769,56.526 L34.672,74.827 C33.706,76.787 35.388,79.487 37.573,79.483 L51.146,79.483 L51.146,73.036 L42.765,73.036 L50.645,57.207 C51.326,55.837 50.859,54.001 49.606,53.124 C46.362,50.86 44.234,47.162 44.234,42.881 C44.234,42.328 44.308,41.802 44.377,41.27 z" fill="#1D3A4F"/>
    </g>
    <g>
      <path d="M76.899,69.984 C73.74,69.984 71.161,72.563 71.161,75.721 C71.161,78.88 73.74,81.414 76.899,81.414 C78.41,81.418 79.86,80.82 80.929,79.752 C81.997,78.683 82.595,77.233 82.591,75.722 C82.591,72.563 80.057,69.984 76.899,69.984 z" fill="#1D3A4F"/>
      <path d="M74.964,37.544 L69.161,41.341 C69.224,41.851 69.269,42.352 69.269,42.881 C69.269,47.148 67.2,50.82 63.968,53.088 C62.715,53.965 62.248,55.801 62.93,57.172 L70.737,73.037 L62.393,73.037 L62.393,79.482 L75.966,79.482 C78.15,79.485 79.832,76.786 78.867,74.826 L69.769,56.489 C73.394,53.031 75.714,48.266 75.714,42.88 C75.714,41.031 75.459,39.238 74.963,37.544 z" fill="#1D3A4F"/>
    </g>
    <path d="M61.909,43.368 C61.909,46.247 59.576,48.58 56.697,48.58 C53.819,48.58 51.485,46.247 51.485,43.368 C51.485,40.49 53.819,38.156 56.697,38.156 C59.576,38.156 61.909,40.49 61.909,43.368 z M64.451,111.483 C64.451,115.765 60.98,119.236 56.698,119.236 C52.416,119.236 48.945,115.765 48.945,111.483 C48.945,107.201 52.416,103.73 56.698,103.73 C60.98,103.73 64.451,107.201 64.451,111.483 z" fill="#1D3A4F"/>
  </g>
</svg>
