<?xml version="1.0" encoding="UTF-8"?>
<!DOCTYPE svg PUBLIC "-//W3C//DTD SVG 1.1//EN" "http://www.w3.org/Graphics/SVG/1.1/DTD/svg11.dtd">
<svg version="1.1" xmlns="http://www.w3.org/2000/svg" xmlns:xlink="http://www.w3.org/1999/xlink" x="0" y="0" width="120" height="75" viewBox="0, 0, 120, 75">
  <defs>
    <linearGradient id="Gradient_1" gradientUnits="userSpaceOnUse" x1="52.923" y1="9.418" x2="88.929" y2="9.418" gradientTransform="matrix(1, 0, 0, 1, -8.298, 0.012)">
      <stop offset="0" stop-color="#42AB34"/>
      <stop offset="0.057" stop-color="#47AC34"/>
      <stop offset="0.588" stop-color="#61B22F"/>
      <stop offset="1" stop-color="#69B42E"/>
    </linearGradient>
    <linearGradient id="Gradient_2" gradientUnits="userSpaceOnUse" x1="44.18" y1="85.074" x2="66.362" y2="85.074" gradientTransform="matrix(1, 0, 0, 1, -2.532, -46.805)">
      <stop offset="0" stop-color="#42AB34"/>
      <stop offset="0.057" stop-color="#47AC34"/>
      <stop offset="0.588" stop-color="#61B22F"/>
      <stop offset="1" stop-color="#69B42E"/>
    </linearGradient>
    <linearGradient id="Gradient_3" gradientUnits="userSpaceOnUse" x1="39.991" y1="40.519" x2="52.025" y2="40.519" gradientTransform="matrix(1, 0, 0, 1, 0, -17.571)">
      <stop offset="0" stop-color="#42AB34"/>
      <stop offset="0.057" stop-color="#47AC34"/>
      <stop offset="0.588" stop-color="#61B22F"/>
      <stop offset="1" stop-color="#69B42E"/>
    </linearGradient>
    <linearGradient id="Gradient_4" gradientUnits="userSpaceOnUse" x1="73.843" y1="35.876" x2="108.927" y2="35.876" gradientTransform="matrix(1, 0, 0, 1, -33.858, -18.254)">
      <stop offset="0" stop-color="#42AB34"/>
      <stop offset="0.057" stop-color="#47AC34"/>
      <stop offset="0.588" stop-color="#61B22F"/>
      <stop offset="1" stop-color="#69B42E"/>
    </linearGradient>
    <linearGradient id="Gradient_5" gradientUnits="userSpaceOnUse" x1="96.88" y1="61.631" x2="109.449" y2="61.631" gradientTransform="matrix(1, 0, 0, 1, -34.384, -29.816)">
      <stop offset="0" stop-color="#42AB34"/>
      <stop offset="0.057" stop-color="#47AC34"/>
      <stop offset="0.588" stop-color="#61B22F"/>
      <stop offset="1" stop-color="#69B42E"/>
    </linearGradient>
  </defs>
  <g id="Layer_1">
    <path d="M0.965,69.931 L11.073,69.931 L11.073,66.948 L4.727,66.948 L4.727,56.631 L0.965,56.631 z M14.189,58.493 C14.749,58.55 15.307,58.367 15.725,57.991 C16.144,57.615 16.385,57.08 16.389,56.517 C16.367,55.97 16.117,55.456 15.699,55.102 C15.28,54.748 14.733,54.586 14.189,54.655 C13.639,54.6 13.09,54.774 12.673,55.138 C12.256,55.502 12.009,56.022 11.989,56.574 C12.009,57.127 12.256,57.647 12.673,58.011 C13.09,58.374 13.639,58.549 14.189,58.493 z M12.384,69.931 L15.994,69.931 L15.994,59.631 L12.384,59.631 z M31.745,59.462 C30.369,59.42 29.05,60.016 28.173,61.077 C27.423,59.995 26.162,59.383 24.848,59.462 C23.691,59.427 22.573,59.883 21.77,60.716 L21.77,59.631 L18.335,59.631 L18.335,69.931 L21.945,69.931 L21.945,64.82 C21.945,63.22 22.705,62.52 23.769,62.52 C24.738,62.52 25.327,63.147 25.327,64.629 L25.327,69.931 L28.935,69.931 L28.935,64.82 C28.935,63.22 29.695,62.52 30.74,62.52 C31.69,62.52 32.298,63.147 32.298,64.629 L32.298,69.931 L35.908,69.931 L35.908,64.041 C35.906,60.849 34.135,59.462 31.745,59.462 z M48.864,64.801 C48.919,63.339 48.349,61.922 47.299,60.904 C46.248,59.886 44.814,59.362 43.354,59.462 C40.105,59.462 37.692,61.662 37.692,64.762 C37.692,67.841 40.067,70.102 43.735,70.102 C45.372,70.219 46.978,69.607 48.123,68.431 L46.223,66.455 C45.582,67.058 44.727,67.379 43.848,67.348 C42.719,67.472 41.66,66.779 41.321,65.695 L48.807,65.695 C48.826,65.409 48.864,65.067 48.864,64.801 z M43.373,62.031 C44.428,61.984 45.344,62.751 45.482,63.798 L41.264,63.798 C41.408,62.755 42.32,61.99 43.373,62.031 z M55.381,70.197 C59.333,70.197 61.271,68.221 61.271,65.903 C61.271,61.003 53.728,62.521 53.728,60.488 C53.728,59.823 54.298,59.288 55.875,59.288 C57.169,59.321 58.436,59.674 59.561,60.314 L60.72,57.521 C59.235,56.734 57.575,56.335 55.894,56.362 C51.942,56.362 50.004,58.3 50.004,60.675 C50.004,65.615 57.566,64.075 57.566,66.185 C57.566,66.831 56.958,67.268 55.4,67.268 C53.844,67.247 52.324,66.793 51.011,65.957 L49.776,68.731 C51.469,69.737 53.412,70.245 55.381,70.197 z M70.049,59.631 L70.049,64.59 C70.049,66.319 69.175,67.022 68.111,67.022 C67.028,67.022 66.401,66.395 66.401,64.799 L66.401,59.631 L62.791,59.631 L62.791,65.388 C62.791,68.656 64.634,70.1 67.161,70.1 C68.315,70.132 69.427,69.67 70.22,68.831 L70.22,69.931 L73.659,69.931 L73.659,59.631 z M79.416,60.866 L79.416,59.631 L75.977,59.631 L75.977,69.931 L79.587,69.931 L79.587,65.2 C79.491,64.514 79.717,63.821 80.199,63.323 C80.682,62.826 81.368,62.579 82.057,62.654 C82.33,62.656 82.603,62.675 82.874,62.711 L82.874,59.462 C81.565,59.367 80.287,59.887 79.416,60.868 z M92.089,59.631 L89.489,65.92 L87.016,59.631 L83.311,59.631 L87.548,69.931 L91.272,69.931 L95.528,59.631 z M106.7,64.801 C106.755,63.339 106.185,61.922 105.135,60.904 C104.084,59.886 102.65,59.362 101.19,59.462 C97.941,59.462 95.528,61.662 95.528,64.762 C95.528,67.84 97.903,70.101 101.57,70.101 C103.208,70.218 104.813,69.607 105.959,68.431 L104.059,66.455 C103.418,67.058 102.563,67.379 101.684,67.348 C100.555,67.472 99.496,66.779 99.157,65.695 L106.643,65.695 C106.662,65.409 106.7,65.067 106.7,64.801 z M101.209,62.031 C102.264,61.984 103.18,62.751 103.318,63.798 L99.1,63.798 C99.244,62.755 100.156,61.99 101.209,62.031 z M115.592,59.631 L113.046,65.92 L110.519,59.631 L106.814,59.631 L111.222,70.064 C110.996,70.633 110.426,70.987 109.816,70.938 C109.227,70.934 108.659,70.719 108.216,70.33 L106.962,72.857 C107.832,73.477 108.877,73.803 109.945,73.788 C111.978,73.788 113.498,73.009 114.581,70.349 L119.035,59.631 z" fill="#61B22F"/>
    <path d="M45.421,5.405 C46.741,5.432 48.049,5.674 49.291,6.123 C50.53,6.555 51.728,7.097 52.87,7.743 C54.007,8.379 55.102,9.086 56.15,9.86 C56.672,10.248 57.183,10.643 57.685,11.06 C57.938,11.266 58.185,11.479 58.429,11.697 C58.552,11.804 58.674,11.915 58.797,12.025 L58.979,12.199 L59.179,12.385 L55.543,12.393 L55.867,12.013 L56.167,11.677 C56.367,11.455 56.567,11.242 56.776,11.028 Q57.393,10.399 58.034,9.81 C58.461,9.418 58.904,9.039 59.347,8.671 C59.572,8.489 59.798,8.307 60.023,8.129 L60.363,7.86 L60.711,7.603 C61.637,6.911 62.598,6.274 63.587,5.676 C64.576,5.078 65.597,4.545 66.637,4.05 C68.721,3.064 70.907,2.313 73.157,1.809 C74.278,1.564 75.414,1.391 76.557,1.291 C77.705,1.187 78.86,1.185 80.009,1.283 C79.526,1.615 79.036,1.896 78.557,2.197 C78.32,2.347 78.078,2.497 77.837,2.632 C77.718,2.703 77.6,2.774 77.481,2.85 L77.125,3.068 C76.179,3.638 75.258,4.215 74.34,4.777 C72.512,5.916 70.74,7.06 69.003,8.239 C67.266,9.418 65.573,10.623 63.916,11.873 C63.505,12.189 63.089,12.498 62.682,12.822 C62.275,13.146 61.871,13.463 61.467,13.783 C61.063,14.103 60.667,14.436 60.28,14.764 C60.086,14.93 59.892,15.092 59.702,15.255 L59.18,15.714 L56.98,17.649 L55.541,15.723 C55.513,15.683 55.462,15.623 55.418,15.573 L55.28,15.407 L54.999,15.071 L54.425,14.395 Q53.843,13.719 53.25,13.046 C52.459,12.152 51.656,11.262 50.829,10.388 C50.002,9.514 49.163,8.651 48.277,7.817 C47.378,6.952 46.424,6.147 45.421,5.405 z" fill="url(#Gradient_1)"/>
    <g>
      <path d="M57.528,37.786 C53.48,37.782 49.784,35.484 47.99,31.856 L41.648,34.586 C45.556,42.919 55.241,46.814 63.83,43.506 L61.104,37.164 C59.956,37.575 58.747,37.786 57.528,37.786 z" fill="url(#Gradient_2)"/>
      <path d="M46.89,27.14 C46.894,23.418 48.84,19.968 52.025,18.04 L47.562,12.72 C40.987,17.262 38.315,25.673 41.062,33.177 L47.415,30.447 C47.066,29.379 46.889,28.263 46.89,27.14 z" fill="url(#Gradient_3)"/>
      <path d="M68.106,13.167 L62.152,17.567 C64.158,18.543 65.81,20.119 66.88,22.077 L73.23,19.347 C72.019,16.921 70.266,14.806 68.106,13.167 z" fill="url(#Gradient_4)"/>
      <path d="M75.065,27.144 C75.067,24.95 74.655,22.776 73.85,20.735 L67.512,23.461 C69.356,28.465 67.212,34.061 62.496,36.551 L65.226,42.895 C71.241,39.951 75.057,33.841 75.065,27.144 z" fill="url(#Gradient_5)"/>
    </g>
  </g>
</svg>
